<?xml version="1.0" standalone="no"?>
<!DOCTYPE svg PUBLIC "-//W3C//DTD SVG 20010904//EN"
 "http://www.w3.org/TR/2001/REC-SVG-20010904/DTD/svg10.dtd">
<svg version="1.0" xmlns="http://www.w3.org/2000/svg"
 width="500.000000pt" height="500.000000pt" viewBox="0 0 500.000000 500.000000"
 preserveAspectRatio="xMidYMid meet">
<metadata>
Created by potrace 1.14, written by Peter Selinger 2001-2017
</metadata>
<g transform="translate(0.000000,500.000000) scale(0.100000,-0.100000)"
fill="#000000" stroke="none">
<path d="M2420 4724 c0 -6 -19 -10 -45 -10 -25 1 -45 -2 -45 -6 0 -3 -8 -5
-17 -3 -10 1 -28 -2 -40 -6 -16 -6 -23 -5 -23 4 0 7 -3 8 -8 2 -4 -5 -18 -12
-32 -14 -14 -2 -29 -4 -35 -5 -5 -1 -16 -6 -24 -10 -11 -7 -12 -6 -6 5 8 12 6
12 -8 1 -9 -8 -21 -11 -27 -7 -5 3 -10 2 -10 -2 0 -5 -14 -9 -31 -9 -17 -1
-34 -6 -38 -10 -3 -5 -13 -10 -21 -11 -38 -6 -98 -20 -108 -27 -7 -4 -22 -9
-34 -11 -27 -6 -130 -46 -142 -57 -6 -4 -18 -8 -28 -8 -10 0 -18 -5 -18 -12 0
-6 -3 -9 -6 -5 -10 9 -187 -87 -309 -168 -94 -62 -211 -151 -259 -197 -8 -7
-43 -41 -79 -75 -36 -35 -64 -63 -61 -63 2 0 -18 -22 -46 -49 -27 -27 -50 -56
-50 -65 0 -10 -3 -15 -7 -13 -5 3 -14 -1 -21 -9 -7 -8 -10 -14 -5 -14 4 0 -2
-7 -13 -15 -10 -8 -16 -15 -12 -15 5 0 0 -9 -10 -19 -34 -38 -41 -49 -35 -55
4 -3 -1 -6 -10 -6 -9 0 -19 -5 -23 -12 -5 -7 -3 -8 5 -3 7 4 2 -9 -10 -28 -13
-19 -28 -33 -33 -30 -5 4 -6 2 -3 -4 3 -5 -5 -26 -19 -46 -14 -20 -22 -37 -19
-37 3 0 -4 -10 -15 -22 -11 -12 -18 -28 -16 -35 3 -7 1 -13 -4 -13 -7 0 -50
-79 -54 -100 -4 -21 -30 -70 -37 -70 -5 0 -6 -6 -3 -14 3 -8 0 -17 -5 -21 -6
-3 -9 -11 -6 -16 4 -5 2 -9 -4 -9 -6 0 -8 -7 -5 -15 4 -8 1 -15 -5 -15 -6 0
-11 -9 -11 -20 0 -11 -4 -20 -8 -20 -4 0 -8 -8 -9 -17 -1 -19 -5 -35 -22 -90
-5 -18 -7 -33 -4 -33 3 0 0 -7 -7 -15 -6 -8 -9 -19 -5 -25 3 -5 1 -10 -5 -10
-7 0 -10 -7 -7 -15 4 -8 2 -17 -3 -20 -5 -3 -9 -16 -9 -28 1 -12 -4 -37 -9
-54 -8 -25 -8 -33 1 -33 9 0 8 -3 -1 -8 -7 -5 -13 -24 -15 -43 -2 -19 -6 -40
-11 -47 -4 -7 -2 -12 5 -12 8 0 9 -3 0 -13 -6 -8 -9 -28 -7 -45 2 -18 1 -32
-3 -32 -3 0 -6 -28 -5 -62 0 -35 -4 -69 -10 -77 -8 -11 -8 -13 2 -7 15 9 16
-6 0 -22 -7 -7 -8 -12 -2 -12 5 0 10 -40 11 -92 2 -135 5 -188 13 -183 3 2 5
-11 4 -28 -1 -18 2 -38 8 -44 7 -9 7 -13 -1 -13 -9 0 -9 -5 -1 -20 6 -11 8
-20 4 -20 -3 0 0 -8 7 -17 12 -15 12 -16 -1 -8 -12 7 -13 6 -3 -6 7 -9 13 -30
15 -47 1 -18 5 -32 8 -32 3 0 6 -17 8 -37 1 -20 6 -39 10 -43 4 -3 9 -18 11
-35 1 -16 6 -32 10 -35 3 -3 8 -16 9 -30 2 -14 8 -29 13 -34 5 -6 9 -20 9 -33
0 -13 5 -23 11 -23 5 0 7 -4 4 -10 -3 -5 -2 -10 4 -10 6 0 8 -7 4 -15 -3 -9 2
-24 11 -34 9 -10 13 -21 9 -24 -3 -4 -1 -7 6 -7 7 0 10 -4 6 -9 -3 -5 1 -15 8
-23 7 -7 14 -17 15 -23 5 -27 14 -45 22 -45 4 0 7 -8 6 -17 -2 -10 5 -25 15
-34 10 -9 16 -19 12 -23 -3 -3 3 -17 15 -29 12 -13 19 -27 15 -30 -3 -4 -1 -7
6 -7 7 0 9 -5 6 -10 -3 -6 1 -13 9 -16 9 -3 14 -10 11 -14 -3 -5 3 -13 12 -19
10 -5 17 -12 16 -15 -6 -13 -2 -23 22 -49 14 -15 23 -27 20 -27 -4 0 0 -6 7
-14 7 -7 20 -24 28 -37 8 -12 25 -33 38 -45 12 -11 22 -26 22 -33 0 -6 5 -11
10 -11 6 0 10 -5 10 -11 0 -15 26 -39 34 -32 3 4 6 -1 6 -10 0 -9 5 -17 10
-17 6 0 10 -7 10 -16 0 -8 3 -13 8 -11 4 3 20 -12 36 -34 17 -21 36 -39 45
-39 8 0 12 -3 9 -6 -8 -7 36 -54 51 -54 6 0 11 -8 11 -17 0 -9 3 -14 6 -10 3
3 18 -6 33 -19 136 -130 425 -306 644 -393 87 -35 289 -98 340 -106 17 -3 57
-10 87 -16 123 -23 198 -28 385 -28 203 -1 250 3 395 30 30 6 64 12 75 14 117
19 336 95 490 170 132 63 349 196 385 235 3 3 21 17 40 31 19 15 55 45 80 67
24 22 48 38 52 36 5 -3 7 -2 6 3 -1 4 32 43 74 85 43 43 75 78 72 78 -3 0 1 6
8 14 7 8 16 12 21 9 4 -2 7 3 7 11 0 9 3 16 8 16 4 0 12 10 17 23 6 12 17 21
24 19 7 -1 10 2 7 7 -4 5 -1 15 6 23 22 23 65 83 66 91 0 5 9 16 19 25 10 9
19 23 21 31 1 7 14 28 27 46 14 17 25 37 25 43 0 6 8 16 18 21 9 6 13 11 9 11
-5 0 5 24 22 53 17 30 28 57 24 60 -3 4 -2 7 4 7 9 0 28 37 37 70 1 3 7 15 14
26 6 12 8 24 5 28 -3 3 -1 6 5 6 7 0 11 3 10 8 -1 8 9 39 23 65 5 10 7 22 4
27 -4 6 -2 10 2 10 5 0 19 39 33 88 13 48 27 95 32 104 6 13 5 18 -4 18 -10 0
-10 2 0 9 8 5 15 20 15 35 1 14 7 26 12 26 6 0 3 5 -5 10 -8 5 -10 10 -5 10 9
0 14 20 18 78 0 12 6 22 12 22 5 0 3 5 -5 10 -9 6 -11 10 -3 10 7 0 10 7 7 15
-3 8 -2 20 2 27 10 17 10 50 -1 67 -5 9 -4 12 2 8 6 -4 11 4 10 21 0 15 1 86
3 159 1 72 0 135 -3 140 -2 4 -3 16 -2 26 2 9 -2 17 -8 17 -8 0 -8 3 -2 8 13
8 13 22 1 41 -7 10 -6 12 4 6 10 -6 11 -4 4 6 -5 8 -10 25 -10 39 -1 14 -3 25
-4 25 -1 0 -3 14 -5 30 -1 17 -6 48 -10 70 -4 22 -8 49 -10 60 -2 11 -4 20 -5
20 -4 0 -11 42 -11 63 0 12 -4 22 -9 22 -6 0 -10 10 -10 23 0 13 -6 29 -13 36
-10 11 -9 12 3 6 13 -8 13 -6 2 7 -12 15 -23 47 -24 76 -1 6 -5 12 -10 12 -5
0 -6 5 -3 10 3 6 1 10 -5 10 -6 0 -9 4 -6 9 3 4 -3 24 -13 44 -10 20 -15 34
-10 31 5 -3 6 2 3 10 -3 9 -9 16 -13 16 -4 0 -13 20 -20 45 -9 29 -19 45 -30
45 -14 0 -14 2 -1 10 10 6 11 10 2 10 -6 0 -11 3 -10 8 1 4 -3 17 -10 28 -6
12 -8 25 -4 29 4 5 1 5 -5 1 -12 -6 -18 5 -14 27 0 4 -3 7 -9 7 -5 0 -10 7
-10 15 0 8 -5 15 -11 15 -5 0 -7 5 -4 10 3 6 -1 13 -9 16 -9 3 -14 10 -11 14
3 5 0 14 -7 22 -7 7 -19 25 -27 41 -8 15 -18 27 -23 27 -5 0 -6 5 -3 10 3 6
-1 10 -9 10 -9 0 -16 5 -16 11 0 5 5 7 12 3 7 -4 8 -3 4 4 -4 7 -14 12 -22 12
-8 0 -13 4 -9 9 3 5 -2 16 -10 24 -8 9 -15 18 -15 21 0 3 -14 19 -31 36 -18
16 -29 30 -25 30 4 0 -4 11 -18 24 -15 13 -26 26 -26 30 0 12 -27 35 -34 29
-6 -6 -10 12 -7 30 0 4 -3 7 -7 7 -5 0 -38 29 -73 63 -35 35 -94 89 -131 120
-36 30 -63 58 -60 62 4 3 -1 3 -11 -1 -10 -3 -17 -1 -17 6 0 6 -4 8 -10 5 -5
-3 -10 1 -10 9 0 8 -9 18 -20 21 -11 3 -20 11 -20 16 0 6 -4 7 -10 4 -5 -3
-10 -2 -10 2 0 5 -16 17 -35 27 -19 11 -35 23 -35 28 0 4 -3 7 -7 7 -20 -3
-34 2 -28 11 3 6 -3 10 -14 10 -12 0 -21 4 -21 9 0 5 -13 14 -30 20 -16 5 -30
14 -30 20 0 5 -8 8 -17 7 -10 -2 -22 2 -28 9 -5 6 -35 22 -65 35 -30 13 -68
33 -84 44 -16 11 -26 15 -22 8 5 -8 2 -10 -8 -6 -9 3 -16 10 -16 14 0 5 -9 7
-20 5 -11 -2 -20 0 -20 6 0 5 -9 9 -20 9 -11 0 -20 5 -20 11 0 8 -5 7 -16 -1
-12 -11 -15 -11 -12 0 2 8 -4 15 -12 16 -8 0 -17 2 -20 3 -8 4 -43 11 -62 13
-10 1 -18 6 -18 11 0 5 -9 7 -20 4 -11 -3 -23 -1 -26 5 -3 5 -12 7 -20 4 -8
-3 -14 0 -14 5 0 6 -9 9 -20 6 -11 -3 -20 0 -20 6 0 6 -3 7 -6 4 -4 -3 -15 -2
-25 4 -14 7 -19 6 -19 -3 0 -8 -3 -9 -8 -3 -10 14 -30 18 -147 31 -33 3 -66
11 -74 18 -11 8 -13 8 -8 0 9 -15 -85 -14 -95 1 -5 6 -8 5 -8 -4 0 -9 -4 -10
-12 -5 -16 11 -39 11 -57 0 -7 -5 -16 -5 -20 0 -8 12 -41 14 -41 2 0 -5 -6 -6
-12 -1 -17 10 -38 13 -38 5 0 -11 -64 -8 -72 3 -5 6 -8 6 -8 -1z"/>
</g>
</svg>
